<svg xmlns="http://www.w3.org/2000/svg" fill="none" viewBox="0 0 36 36">
	<circle cx="18" cy="18" r="18" fill="#191a57" />
	<path fill="#fff" fillRule="evenodd" d="M4.716 11.224C8.592 3.753 17.79.84 25.26 4.716c.341.176.671.364.992.561L23.339 7.14l-.004-.001-5.867 3.748-.116-4.83c-.953.07-1.893.252-2.799.54-2.98.944-5.6 3.025-7.154 6.02a12.18 12.18 0 0 0-.803 9.315 12.204 12.204 0 0 0 3.794 5.672l-2.646 1.69c-4.8-4.555-6.229-11.902-3.028-18.07Zm5.598 19.982.027.002-.053.034c.304.186.616.362.936.528 7.472 3.877 16.67.963 20.546-6.509 3.191-6.15 1.78-13.47-2.987-18.029l-2.641 1.689a12.189 12.189 0 0 1 3.747 5.632c.945 2.98.752 6.321-.802 9.316a12.18 12.18 0 0 1-7.155 6.02c-.936.297-1.91.482-2.896.546l.033-4.823-8.755 5.594Z" clipRule="evenodd" />
	<circle cx="18.5" cy="18.5" r="2.5" fill="#fff" />
</svg>
